<svg width="387" height="99" xmlns="http://www.w3.org/2000/svg" xmlns:xlink="http://www.w3.org/1999/xlink" xml:space="preserve" overflow="hidden"><defs><clipPath id="clip0"><rect x="351" y="103" width="386" height="98"/></clipPath><clipPath id="clip1"><rect x="351" y="103" width="386" height="98"/></clipPath><clipPath id="clip2"><rect x="351" y="103" width="386" height="98"/></clipPath><clipPath id="clip3"><path d="M501.915 115.313C501.984 115.562 502.054 115.903 502.053 116.231 502.052 116.524 501.988 116.806 501.931 117.028L481.34 197.43C481.218 197.903 480.954 198.271 480.757 198.229L480.419 198.154 498.498 102.993Z" fill-rule="nonzero" clip-rule="nonzero"/></clipPath><linearGradient x1="150.451" y1="97.5894" x2="130.278" y2="3.44656" gradientUnits="userSpaceOnUse" spreadMethod="pad" id="fill4"><stop offset="0" stop-color="#BE1567" stop-opacity="1"/><stop offset="0.263037" stop-color="#BE1567" stop-opacity="1"/><stop offset="1" stop-color="#611C41" stop-opacity="1"/></linearGradient><clipPath id="clip5"><path d="M470.393 163.915C470.144 166.782 469.808 168.814 469.379 170.141 468.936 171.485 468.149 172.797 467.048 174.036 464.996 176.324 462.016 177.489 458.199 177.489 454.296 177.489 451.468 176.459 449.795 174.44 448.137 172.425 447.705 169.29 448.075 165.032L449.064 153.576 445.896 153.576 446.188 150.213 454.447 150.213 454.172 153.576 453.265 163.818C453.041 166.376 453.035 168.26 453.183 169.415 453.311 170.502 453.679 171.415 454.25 172.113 455.353 173.461 456.877 174.119 458.901 174.119 460.85 174.119 462.457 173.511 463.823 172.242 465.094 171.07 465.865 168.538 466.202 164.713L467.196 153.269C467.196 153.269 467.456 150.213 470.79 150.213L471.583 150.213ZM409.993 149.679 415.186 148.423 414.735 153.578 418.644 153.578 418.356 156.892 414.451 156.892 413.306 170.07C413.183 171.484 413.335 172.543 413.754 173.228 414.146 173.854 414.767 174.159 415.662 174.159 418.6 174.159 418.491 176.971 418.491 176.971 418.491 176.971 416.24 177.478 414.744 177.478 412.314 177.478 410.539 176.819 409.485 175.51 408.436 174.221 408.033 172.215 408.27 169.54ZM405.974 149.345C405.86 150.746 404.618 151.882 403.216 151.882 401.815 151.882 400.775 150.746 400.9 149.345 401.027 147.946 402.256 146.811 403.66 146.811 405.06 146.811 406.103 147.946 405.974 149.345ZM397.743 153.578 405.508 153.578 403.433 177.472C403.433 177.472 398.327 177.726 398.776 172.537L400.127 156.99 397.446 156.99ZM480.419 198.154 498.498 102.993 378.798 134.112C378.599 134.165 378.251 134.289 378.026 134.44 377.773 134.608 377.574 134.819 377.403 135.046L351.33 169.484C351.036 169.872 351.187 170.277 351.662 170.379L379.352 176.352C376.93 175.448 375.116 174.134 374.181 173.033 371.71 170.107 370.632 166.079 371.227 161.785 372.737 150.878 380.566 145.993 387.811 145.993 391.271 145.993 394.545 146.563 397.124 147.978L396.703 152.829 393.135 152.829 393.298 150.954C391.991 150.142 387.337 149.405 383.498 150.972 378.991 153.041 377.05 158.395 376.797 161.991 376.621 164.555 376.981 167.909 378.779 170.336 380.585 172.777 385.642 174.643 391.596 172.647 394.242 171.719 395.422 174.456 395.422 174.456L395.149 174.609C391.214 176.946 387.449 177.617 384.192 177.396L423.019 185.772 428.433 175.874 422.39 156.99 419.877 156.99 420.173 153.578 426.615 153.578 431.79 169.748 438.957 156.655C438.957 156.655 440.182 153.578 444.105 153.578L445.416 153.578 427.348 185.703C427.163 186.032 426.981 186.329 426.77 186.581Z" fill-rule="nonzero" clip-rule="nonzero"/></clipPath><linearGradient x1="139.536" y1="99.4838" x2="64.1582" y2="20.1266" gradientUnits="userSpaceOnUse" spreadMethod="pad" id="fill6"><stop offset="0" stop-color="#FBCCE4" stop-opacity="1"/><stop offset="0.35" stop-color="#BE1567" stop-opacity="1"/><stop offset="1" stop-color="#611C41" stop-opacity="1"/></linearGradient></defs><g transform="translate(-350 -102)"><g><g clip-path="url(#clip0)"><g clip-path="url(#clip1)"><g clip-path="url(#clip2)"><path d="M172.529 9.16877C172.047 9.8216 171.281 10.1532 170.504 10.1532 168.698 10.1532 167.417 8.56324 167.417 6.78873 167.417 4.91703 168.686 3.4305 170.504 3.4305 171.488 3.4305 172.276 3.83176 172.848 4.56308L173.568 3.9565C172.848 2.98557 171.794 2.53856 170.504 2.53856 168.183 2.53856 166.387 4.33437 166.387 6.78873 166.387 9.16877 168.1 11.0431 170.504 11.0431 171.601 11.0431 172.675 10.6683 173.363 9.77481L172.529 9.16877" fill="#231F20" fill-rule="nonzero" fill-opacity="1" transform="matrix(1 0 0 -1 351.18 201)"/><path d="M195.031 5.83183C195.031 4.07241 194.208 2.53856 191.98 2.53856 189.75 2.53856 188.927 4.07241 188.927 5.83183L188.927 10.8377 189.888 10.8377 189.888 5.96906C189.888 4.66495 190.368 3.4305 191.98 3.4305 193.591 3.4305 194.071 4.66495 194.071 5.96906L194.071 10.8377 195.031 10.8377 195.031 5.83183" fill="#231F20" fill-rule="nonzero" fill-opacity="1" transform="matrix(1 0 0 -1 351.18 201)"/><path d="M174.662 8.09596 175.555 8.09596 175.555 2.74491 174.662 2.74491ZM175.108 10.8398C175.475 10.8398 175.758 10.542 175.758 10.1875 175.758 9.8112 175.485 9.53573 175.108 9.53573 174.731 9.53573 174.457 9.8112 174.457 10.1875 174.457 10.542 174.743 10.8398 175.108 10.8398" fill="#231F20" fill-rule="nonzero" fill-opacity="1" transform="matrix(1 0 0 -1 351.18 201)"/><path d="M180.015 7.34281 178.434 7.34281 178.434 4.66495C178.434 3.97989 178.447 3.4305 179.238 3.4305 179.5 3.4305 179.785 3.48871 180.025 3.61346L180.057 2.80209C179.75 2.66434 179.35 2.60874 179.02 2.60874 177.75 2.60874 177.544 3.29275 177.544 4.40351L177.544 7.34281 176.378 7.34281 176.378 8.09596 177.544 8.09596 177.544 9.61576 178.434 9.61576 178.434 8.09596 180.015 8.09596 180.015 7.34281" fill="#231F20" fill-rule="nonzero" fill-opacity="1" transform="matrix(1 0 0 -1 351.18 201)"/><path d="M183.542 1.52033C183.192 0.618528 182.836 0 181.761 0 181.509 0 181.2 0.0244293 180.961 0.138779L181.074 0.915318C181.258 0.845148 181.452 0.824357 181.703 0.824357 182.288 0.824357 182.504 1.17936 182.697 1.70589L183.062 2.71009 180.848 8.09596 181.886 8.09596 183.542 3.89933 183.568 3.89933 185.158 8.09596 186.129 8.09596 183.542 1.52033" fill="#231F20" fill-rule="nonzero" fill-opacity="1" transform="matrix(1 0 0 -1 351.18 201)"/><path d="M196.208 6.82564C196.208 7.31838 196.163 7.74147 196.163 8.09596L197.008 8.09596C197.008 7.80749 197.031 7.51277 197.031 7.21651L197.055 7.21651C197.294 7.74147 197.958 8.23162 198.836 8.23162 200.244 8.23162 200.872 7.34281 200.872 6.04961L200.872 2.74491 199.982 2.74491 199.982 5.95709C199.982 6.85007 199.593 7.41038 198.758 7.41038 197.603 7.41038 197.101 6.5725 197.101 5.35104L197.101 2.74491 196.208 2.74491 196.208 6.82564" fill="#231F20" fill-rule="nonzero" fill-opacity="1" transform="matrix(1 0 0 -1 351.18 201)"/><path d="M202.12 8.09596 203.01 8.09596 203.01 2.74491 202.12 2.74491ZM202.567 10.8398C202.929 10.8398 203.215 10.542 203.215 10.1875 203.215 9.8112 202.943 9.53573 202.567 9.53573 202.188 9.53573 201.914 9.8112 201.914 10.1875 201.914 10.542 202.201 10.8398 202.567 10.8398" fill="#231F20" fill-rule="nonzero" fill-opacity="1" transform="matrix(1 0 0 -1 351.18 201)"/><path d="M207.279 2.74491 206.296 2.74491 204.114 8.09596 205.153 8.09596 206.823 3.89933 206.845 3.89933 208.433 8.09596 209.393 8.09596 207.279 2.74491" fill="#231F20" fill-rule="nonzero" fill-opacity="1" transform="matrix(1 0 0 -1 351.18 201)"/><path d="M220.154 4.15141C220.507 3.7174 220.897 3.4305 221.525 3.4305 222.088 3.4305 222.704 3.67219 222.704 4.25537 222.704 4.824 222.131 4.97265 221.559 5.10103 220.541 5.32714 219.674 5.54544 219.674 6.65515 219.674 7.69313 220.68 8.2337 221.674 8.2337 222.428 8.2337 223.125 7.94522 223.491 7.2612L222.75 6.7695C222.517 7.14374 222.142 7.41038 221.616 7.41038 221.124 7.41038 220.564 7.1692 220.564 6.66711 220.564 6.22114 221.207 6.02727 221.916 5.88849 222.863 5.70501 223.662 5.36456 223.662 4.28603 223.662 3.07653 222.588 2.60874 221.525 2.60874 220.621 2.60874 219.972 2.84782 219.444 3.60201L220.154 4.15141" fill="#231F20" fill-rule="nonzero" fill-opacity="1" transform="matrix(1 0 0 -1 351.18 201)"/><path d="M213.941 5.89992C213.908 6.8038 213.312 7.41038 212.331 7.41038 211.344 7.41038 210.695 6.8038 210.58 5.89992ZM214.707 3.7174C214.079 2.905 213.324 2.60874 212.331 2.60874 210.65 2.60874 209.618 3.86398 209.618 5.41966 209.618 7.07669 210.787 8.23162 212.363 8.23162 213.872 8.23162 214.9 7.20403 214.9 5.43109L214.9 5.14574 210.58 5.14574C210.65 4.21794 211.355 3.4305 212.331 3.4305 213.095 3.4305 213.612 3.70388 214.033 4.24445L214.707 3.7174" fill="#231F20" fill-rule="nonzero" fill-opacity="1" transform="matrix(1 0 0 -1 351.18 201)"/><path d="M216.039 6.82564C216.039 7.31838 215.992 7.74147 215.992 8.09596L216.838 8.09596C216.838 7.80749 216.861 7.51277 216.861 7.21651L216.883 7.21651C217.124 7.74147 217.788 8.23162 218.668 8.23162 218.782 8.23162 218.906 8.22018 219.034 8.17341L218.977 7.27265C218.826 7.31838 218.656 7.34281 218.496 7.34281 217.408 7.34281 216.93 6.5725 216.93 5.35104L216.93 2.74491 216.039 2.74491 216.039 6.82564" fill="#231F20" fill-rule="nonzero" fill-opacity="1" transform="matrix(1 0 0 -1 351.18 201)"/><path d="M224.705 8.09596 225.598 8.09596 225.598 2.74491 224.705 2.74491ZM225.151 10.8398C225.518 10.8398 225.801 10.542 225.801 10.1875 225.801 9.8112 225.529 9.53573 225.151 9.53573 224.774 9.53573 224.5 9.8112 224.5 10.1875 224.5 10.542 224.785 10.8398 225.151 10.8398" fill="#231F20" fill-rule="nonzero" fill-opacity="1" transform="matrix(1 0 0 -1 351.18 201)"/><path d="M230.28 7.34281 228.699 7.34281 228.699 4.66495C228.699 3.97989 228.711 3.4305 229.503 3.4305 229.764 3.4305 230.049 3.48871 230.291 3.61346L230.323 2.80209C230.014 2.66434 229.615 2.60874 229.283 2.60874 228.015 2.60874 227.808 3.29275 227.808 4.40351L227.808 7.34281 226.644 7.34281 226.644 8.09596 227.808 8.09596 227.808 9.61576 228.699 9.61576 228.699 8.09596 230.28 8.09596 230.28 7.34281" fill="#231F20" fill-rule="nonzero" fill-opacity="1" transform="matrix(1 0 0 -1 351.18 201)"/><path d="M233.631 1.52033C233.281 0.618528 232.924 0 231.849 0 231.596 0 231.289 0.0244293 231.049 0.138779L231.161 0.915318C231.346 0.845148 231.54 0.824357 231.793 0.824357 232.376 0.824357 232.593 1.17936 232.784 1.70589L233.152 2.71009 230.935 8.09596 231.974 8.09596 233.631 3.89933 233.655 3.89933 235.245 8.09596 236.217 8.09596 233.631 1.52033" fill="#231F20" fill-rule="nonzero" fill-opacity="1" transform="matrix(1 0 0 -1 351.18 201)"/><path d="M241.514 3.4305C242.671 3.4305 243.412 4.30059 243.412 5.41966 243.412 6.54081 242.671 7.40934 241.514 7.40934 240.361 7.40934 239.617 6.54081 239.617 5.41966 239.617 4.30059 240.361 3.4305 241.514 3.4305M241.514 8.2337C243.162 8.2337 244.374 7.08969 244.374 5.41966 244.374 3.74807 243.162 2.60874 241.514 2.60874 239.867 2.60874 238.66 3.74807 238.66 5.41966 238.66 7.08969 239.867 8.2337 241.514 8.2337" fill="#231F20" fill-rule="nonzero" fill-opacity="1" transform="matrix(1 0 0 -1 351.18 201)"/><path d="M245.911 7.34281 244.747 7.34281 244.747 8.09596 245.911 8.09596 245.911 9.29559C245.911 10.6002 246.369 11.5264 247.81 11.5264 248.037 11.5264 248.326 11.4802 248.496 11.3861L248.37 10.5877C248.174 10.6563 247.968 10.7021 247.764 10.7021 246.836 10.7021 246.802 10.0285 246.802 9.10119L246.802 8.09596 248.106 8.09596 248.106 7.34281 246.802 7.34281 246.802 2.74491 245.911 2.74491 245.911 7.34281" fill="#231F20" fill-rule="nonzero" fill-opacity="1" transform="matrix(1 0 0 -1 351.18 201)"/><path d="M251.768 10.8398 252.729 10.8398 252.729 7.41038 257.049 7.41038 257.049 10.8398 258.011 10.8398 258.011 2.74491 257.049 2.74491 257.049 6.51638 252.729 6.51638 252.729 2.74491 251.768 2.74491 251.768 10.8398" fill="#231F20" fill-rule="nonzero" fill-opacity="1" transform="matrix(1 0 0 -1 351.18 201)"/><path d="M261.986 3.4305C263.138 3.4305 263.883 4.30059 263.883 5.41966 263.883 6.54081 263.138 7.40934 261.986 7.40934 260.83 7.40934 260.085 6.54081 260.085 5.41966 260.085 4.30059 260.83 3.4305 261.986 3.4305M261.986 8.2337C263.633 8.2337 264.843 7.08969 264.843 5.41966 264.843 3.74807 263.633 2.60874 261.986 2.60874 260.34 2.60874 259.127 3.74807 259.127 5.41966 259.127 7.08969 260.34 8.2337 261.986 8.2337" fill="#231F20" fill-rule="nonzero" fill-opacity="1" transform="matrix(1 0 0 -1 351.18 201)"/><path d="M265.959 6.82564C265.959 7.31838 265.915 7.74147 265.915 8.09596L266.759 8.09596C266.759 7.80749 266.782 7.51277 266.782 7.21651L266.804 7.21651C267.044 7.74147 267.708 8.23162 268.589 8.23162 269.994 8.23162 270.623 7.34281 270.623 6.04961L270.623 2.74491 269.732 2.74491 269.732 5.95709C269.732 6.85007 269.344 7.41038 268.51 7.41038 267.354 7.41038 266.851 6.5725 266.851 5.35104L266.851 2.74491 265.959 2.74491 265.959 6.82564" fill="#231F20" fill-rule="nonzero" fill-opacity="1" transform="matrix(1 0 0 -1 351.18 201)"/><path d="M274.512 3.4991C275.738 3.4991 276.423 4.41598 276.423 5.44305 276.423 6.59797 275.645 7.41038 274.512 7.41038 273.395 7.41038 272.627 6.54081 272.627 5.41966 272.627 4.33437 273.473 3.4991 274.512 3.4991M277.313 2.98557C277.313 1.05046 276.275 0 274.399 0 273.359 0 272.526 0.2734 271.769 1.01615L272.41 1.75112C272.969 1.1435 273.577 0.824357 274.399 0.824357 276 0.824357 276.423 1.85299 276.423 2.98557L276.423 3.67219 276.401 3.67219C275.976 2.98557 275.222 2.67475 274.512 2.67475 272.833 2.67475 271.668 3.84371 271.668 5.41966 271.668 7.1692 272.809 8.2337 274.512 8.2337 275.234 8.2337 276.045 7.89013 276.401 7.18063L276.423 7.18063 276.423 8.09596 277.313 8.09596 277.313 2.98557" fill="#231F20" fill-rule="nonzero" fill-opacity="1" transform="matrix(1 0 0 -1 351.18 201)"/><path d="M290.454 3.4305C291.607 3.4305 292.352 4.30059 292.352 5.41966 292.352 6.54081 291.607 7.40934 290.454 7.40934 289.299 7.40934 288.554 6.54081 288.554 5.41966 288.554 4.30059 289.299 3.4305 290.454 3.4305M290.454 8.2337C292.1 8.2337 293.311 7.08969 293.311 5.41966 293.311 3.74807 292.1 2.60874 290.454 2.60874 288.81 2.60874 287.596 3.74807 287.596 5.41966 287.596 7.08969 288.81 8.2337 290.454 8.2337" fill="#231F20" fill-rule="nonzero" fill-opacity="1" transform="matrix(1 0 0 -1 351.18 201)"/><path d="M294.428 6.82564C294.428 7.31838 294.384 7.74147 294.384 8.09596L295.227 8.09596C295.227 7.80749 295.251 7.51277 295.251 7.21651L295.274 7.21651C295.515 7.74147 296.176 8.23162 297.057 8.23162 298.463 8.23162 299.093 7.34281 299.093 6.04961L299.093 2.74491 298.201 2.74491 298.201 5.95709C298.201 6.85007 297.813 7.41038 296.978 7.41038 295.824 7.41038 295.319 6.5725 295.319 5.35104L295.319 2.74491 294.428 2.74491 294.428 6.82564" fill="#231F20" fill-rule="nonzero" fill-opacity="1" transform="matrix(1 0 0 -1 351.18 201)"/><path d="M302.981 3.4991C304.208 3.4991 304.893 4.41598 304.893 5.44305 304.893 6.59797 304.113 7.41038 302.981 7.41038 301.862 7.41038 301.095 6.54081 301.095 5.41966 301.095 4.33437 301.942 3.4991 302.981 3.4991M305.783 2.98557C305.783 1.05046 304.744 0 302.868 0 301.827 0 300.993 0.2734 300.238 1.01615L300.879 1.75112C301.439 1.1435 302.045 0.824357 302.868 0.824357 304.469 0.824357 304.893 1.85299 304.893 2.98557L304.893 3.67219 304.868 3.67219C304.446 2.98557 303.691 2.67475 302.981 2.67475 301.303 2.67475 300.136 3.84371 300.136 5.41966 300.136 7.1692 301.28 8.2337 302.981 8.2337 303.702 8.2337 304.514 7.89013 304.868 7.18063L304.893 7.18063 304.893 8.09596 305.783 8.09596 305.783 2.98557" fill="#231F20" fill-rule="nonzero" fill-opacity="1" transform="matrix(1 0 0 -1 351.18 201)"/><path d="M281.414 10.8398 282.374 10.8398 282.374 7.34281 282.512 7.34281 286.193 10.8398 287.575 10.8398 283.574 7.1479 287.769 2.74491 286.364 2.74491 282.512 6.86098 282.374 6.86098 282.374 2.74491 281.414 2.74491 281.414 10.8398" fill="#231F20" fill-rule="nonzero" fill-opacity="1" transform="matrix(1 0 0 -1 351.18 201)"/><path d="M169.809 19.6743 169.809 21.386 175.954 21.386 175.954 19.6743ZM175.954 18.9165 175.954 17.0469 169.809 17.0469 169.809 18.9165ZM174.156 25.3706 179.016 25.3706 179.016 26.1294 173.261 26.1294 173.261 27.5396C174.841 27.6798 176.324 27.8894 177.67 28.1648L177.811 28.1935 177.378 28.9913 177.302 28.9768C174.173 28.3541 170.988 28.0396 167.834 28.0396L167.695 28.0396 167.924 27.2204 168.005 27.2225C169.556 27.2615 171.05 27.3447 172.448 27.4668L172.448 26.1294 166.689 26.1294 166.689 25.3706 171.528 25.3706C171.013 24.8176 170.329 24.264 169.486 23.725 168.437 23.0502 167.393 22.5269 166.381 22.1656L166.268 22.1251 166.63 21.3834 166.721 21.4166C167.768 21.8028 168.923 22.4126 170.158 23.2285 171.074 23.8763 171.844 24.5577 172.448 25.2557L172.448 22.1454 168.992 22.1454 168.992 16.2927 176.768 16.2927 176.768 22.1454 173.261 22.1454 173.261 25.2541C174.457 23.8996 176.304 22.6491 178.755 21.5341L178.824 21.503 179.485 22.2161 179.346 22.2742C177.038 23.2228 175.294 24.264 174.156 25.3706" fill="#231F20" fill-rule="nonzero" fill-opacity="1" transform="matrix(1 0 0 -1 351.18 201)"/><path d="M243.053 20.0138C242.129 21.2399 241.514 22.5695 241.178 24.1537L246.23 24.1537 246.23 25.0213 240.1 25.0213C240.25 26.0722 240.374 27.3046 240.475 28.7849L240.482 28.8972 239.63 28.8972 239.625 28.7985C239.531 27.433 239.396 26.1283 239.232 25.0213L234.071 25.0213 234.071 24.1537 239.083 24.1537C238.765 22.5212 238.341 21.3002 237.819 20.4514 236.927 18.9909 235.547 17.7689 233.599 16.7142L233.479 16.6488 234.1 15.9845 234.172 16.023C236.277 17.1545 237.742 18.4773 238.65 20.0658 239.194 21.0097 239.62 22.3227 239.951 24.1537L240.308 24.1537C240.648 22.4432 241.302 20.966 242.302 19.5679 243.234 18.1811 244.429 17.0226 245.956 16.0308L246.043 15.9736 246.6 16.814 246.507 16.8723C245.071 17.7481 243.942 18.7747 243.053 20.0138" fill="#231F20" fill-rule="nonzero" fill-opacity="1" transform="matrix(1 0 0 -1 351.18 201)"/><path d="M224.713 27.4496 224.65 27.5178C224.119 28.0994 223.575 28.5505 222.982 28.9393L222.905 28.9913 222.386 28.378 222.479 28.3119C223.091 27.8737 223.611 27.418 224.025 26.9158L217.052 26.9158 217.052 26.0925 223.187 26.0925 223.187 23.7307 218.581 23.7307 218.581 17.2148 219.51 17.2148 219.51 22.9021 223.187 22.9021 223.187 15.9736 224.113 15.9736 224.113 22.9021 227.962 22.9021 227.962 18.6935C227.962 18.1997 227.761 18.1997 227.685 18.1997 227.125 18.1997 226.472 18.3428 225.745 18.6245L225.587 18.6869 225.664 17.7928 225.728 17.7694C226.472 17.5096 227.113 17.3822 227.685 17.3822 228.47 17.3822 228.887 17.798 228.887 18.5855L228.887 23.7307 224.113 23.7307 224.113 26.0925 230.247 26.0925 230.247 26.9158 224.263 26.9158 224.713 27.4496" fill="#231F20" fill-rule="nonzero" fill-opacity="1" transform="matrix(1 0 0 -1 351.18 201)"/><path d="M186.008 25.854 186.093 25.7676 186.603 26.4438 186.535 26.5089C185.88 27.1508 185.136 27.7272 184.325 28.221L184.244 28.2704 183.78 27.6544 183.876 27.5926C184.6 27.13 185.316 26.5442 186.008 25.854" fill="#231F20" fill-rule="nonzero" fill-opacity="1" transform="matrix(1 0 0 -1 351.18 201)"/><path d="M189.091 22.1454C189.385 22.5815 189.622 23.015 189.816 23.4635L192.214 23.4635C192.497 23.0098 192.837 22.5695 193.229 22.1454ZM192.167 26.0473 192.167 24.2213 189.811 24.2213 189.811 26.0473ZM189.417 19.8968 189.417 21.3834 192.657 21.3834 192.657 19.8968ZM193.168 23.4635 196.113 23.4635 196.113 24.2213 192.98 24.2213 192.98 26.0473 195.397 26.0473 195.397 26.8056 192.98 26.8056 192.98 28.8972 192.167 28.8972 192.167 26.8056 189.811 26.8056 189.811 28.8972 188.996 28.8972 188.996 26.8056 186.959 26.8056 186.959 26.0473 188.996 26.0473 188.996 24.2213 186.144 24.2213 186.144 23.4635 188.909 23.4635C188.705 23.0373 188.422 22.5845 188.062 22.1163 187.57 21.4848 186.954 20.8969 186.23 20.3693L186.13 20.2949 186.733 19.7097 186.805 19.7638C187.476 20.2581 188.065 20.822 188.601 21.4806L188.601 17.6571C188.601 17.1701 188.673 16.799 189.028 16.5735 189.374 16.3526 190.287 16.2881 193.103 16.2881 194.409 16.2881 194.918 16.4361 195.119 16.8723 195.228 17.1082 195.3 17.7217 195.342 18.7508L195.345 18.8189 194.475 19.2419 194.464 18.9301C194.443 18.2731 194.421 17.6541 194.336 17.4482 194.215 17.1535 193.859 17.1041 193.103 17.1041 191.018 17.1041 189.916 17.1114 189.629 17.2751 189.449 17.3781 189.417 17.4883 189.417 17.6982L189.417 19.1385 193.474 19.1385 193.474 21.8902C194.09 21.2701 194.823 20.6848 195.67 20.1386L195.745 20.0887 196.381 20.8012 196.27 20.8658C194.899 21.6641 193.856 22.5367 193.168 23.4635" fill="#231F20" fill-rule="nonzero" fill-opacity="1" transform="matrix(1 0 0 -1 351.18 201)"/><path d="M186.262 21.4202 185.586 21.8829 185.546 21.743C184.994 19.8818 184.218 18.1436 183.242 16.5765L183.188 16.4908 183.927 15.9736 183.984 16.076C185.003 17.8941 185.742 19.6187 186.241 21.347L186.262 21.4202" fill="#231F20" fill-rule="nonzero" fill-opacity="1" transform="matrix(1 0 0 -1 351.18 201)"/><path d="M185.398 22.6288 185.484 22.5346 185.996 23.1947 185.935 23.2609C185.272 23.9807 184.551 24.5967 183.726 25.146L183.645 25.1996 183.179 24.6019 183.27 24.5379C184.037 23.9849 184.735 23.3607 185.398 22.6288" fill="#231F20" fill-rule="nonzero" fill-opacity="1" transform="matrix(1 0 0 -1 351.18 201)"/><path d="M255.419 23.1584C255.988 23.4136 256.52 23.7338 257.001 24.1127 257.386 23.7712 257.691 23.4812 257.981 23.1818L258.03 23.1293 255.354 23.1293ZM251.609 22.3704 261.926 22.3704 261.926 20.8948 262.727 20.8948 262.727 23.1293 261.802 23.1293 261.923 28.2376 258.767 28.2376 258.767 27.4751 261.089 27.4751 261.068 26.539 258.767 26.539 258.767 25.7646 261.048 25.7646 261.029 24.8809 258.544 24.8809 258.544 24.122 261.011 24.122 260.987 23.1293 258.085 23.1293 258.6 23.6943 258.524 23.765C258.195 24.068 257.893 24.344 257.572 24.6096 257.861 24.8945 258.129 25.2116 258.368 25.5519L258.417 25.6206 258.118 25.9574 258.6 26.4901 258.471 26.6082C258.211 26.8435 257.944 27.0864 257.659 27.3166 257.973 27.6206 258.268 27.9538 258.581 28.3775L258.632 28.4471 258.147 28.9913 258.07 28.8831C257.788 28.4809 257.465 28.1217 257.083 27.7714 256.691 28.0604 256.256 28.3541 255.755 28.6638L255.678 28.7127 255.217 28.1722 255.318 28.1071C255.775 27.8114 256.157 27.5516 256.505 27.2964 256.087 26.9839 255.618 26.7094 255.109 26.4828L254.998 26.4335 255.39 25.8014 255.474 25.8389C256.035 26.0915 256.564 26.4127 257.085 26.8212 257.371 26.5717 257.648 26.3041 257.878 26.0774L257.86 26.052C257.61 25.6986 257.328 25.3747 256.996 25.0613 256.622 25.3316 256.239 25.5884 255.813 25.8674L255.733 25.9205 255.273 25.3602 255.376 25.2967C255.698 25.0957 256.035 24.8628 256.409 24.5847 256.002 24.2816 255.556 24.0187 255.051 23.7842L254.94 23.7327 255.332 23.1293 252.477 23.1293 252.468 24.1793 254.935 24.1793 254.935 24.9381 252.448 24.9381 252.438 25.7646 254.838 25.7646 254.838 26.539 252.435 26.539 252.426 27.1034C253.296 27.2656 254.141 27.5464 255.004 27.9622L255.109 28.013 254.66 28.7382 254.576 28.7023C253.561 28.2636 252.618 27.984 251.696 27.8436L251.605 27.8291 251.718 23.1293 250.794 23.1293 250.794 20.8948 251.609 20.8948 251.609 22.3704" fill="#231F20" fill-rule="nonzero" fill-opacity="1" transform="matrix(1 0 0 -1 351.18 201)"/><path d="M263.176 19.2394 257.081 19.2394C257.079 19.2481 257.075 19.2596 257.071 19.27 257.06 19.297 257.049 19.3272 257.04 19.3563 258.472 19.7929 259.725 20.3344 260.766 20.9656L260.818 20.9962 260.818 21.6536 252.76 21.6536 252.76 20.8948 259.148 20.8948C258.467 20.5986 257.688 20.3282 256.826 20.0896L256.825 20.0887C256.794 20.0835 256.713 20.0658 256.622 20.0408L256.618 20.0393C256.612 20.0377 256.608 20.0372 256.602 20.0351 256.503 20.0086 256.36 19.9732 256.222 19.941 256.161 19.926 256.099 19.9109 256.041 19.8968L255.91 19.8651 255.972 19.7457C256.05 19.596 256.117 19.4389 256.187 19.2394L250.344 19.2394 250.344 18.4805 256.405 18.4805C256.48 18.1509 256.544 17.8567 256.558 17.4534 256.572 17.0963 256.54 16.9373 256.44 16.8645 256.373 16.8162 256.308 16.7886 256.165 16.7886 255.744 16.7886 255.27 16.8961 254.714 17.1181L254.553 17.181 254.633 16.2818 254.698 16.2594C255.293 16.0682 255.823 15.9736 256.316 15.9736 256.641 15.9736 256.899 16.0532 257.089 16.2101 257.325 16.4154 257.425 16.7886 257.422 17.4586 257.421 17.7975 257.374 18.099 257.292 18.4805L263.176 18.4805 263.176 19.2394" fill="#231F20" fill-rule="nonzero" fill-opacity="1" transform="matrix(1 0 0 -1 351.18 201)"/><path d="M204.344 20.245 204.209 21.0736 204.078 20.9998C203.689 20.7867 203.41 20.6614 202.889 20.4535L202.889 24.1809 204.326 24.1809 204.326 24.9381 202.889 24.9381 202.889 28.5054 202.075 28.5054 202.075 24.9381 200.421 24.9381 200.421 24.1809 202.075 24.1809 202.075 20.1318C201.492 19.9041 200.948 19.7015 200.289 19.5132L200.163 19.4779 200.589 18.6806 200.674 18.7076C201.889 19.1047 203.066 19.596 204.275 20.2098L204.344 20.245" fill="#231F20" fill-rule="nonzero" fill-opacity="1" transform="matrix(1 0 0 -1 351.18 201)"/><path d="M212.54 18.8422C212.462 17.9087 212.367 17.2304 212.278 16.9793 212.217 16.7985 212.127 16.7985 212.097 16.7985 211.94 16.7985 211.636 17.088 211.255 17.9009 211.05 18.3355 210.866 18.8271 210.711 19.3646 210.712 19.3662 210.713 19.3667 210.715 19.3688L210.724 19.3792C211.419 20.3589 211.992 21.965 212.426 24.1537L212.446 24.2583 211.588 24.4225 211.569 24.3196C211.263 22.7556 210.873 21.4868 210.405 20.5424 210.304 20.979 210.204 21.4749 210.121 21.9691 209.948 23.0737 209.835 24.2619 209.779 25.4979L213.087 25.4979 213.087 26.2583 209.741 26.2583C209.705 27.0308 209.689 27.8603 209.689 28.7922L209.689 28.8972 208.82 28.8972 208.82 28.7922C208.82 27.7724 208.835 26.985 208.868 26.2583L204.817 26.2583 204.817 22.2795C204.817 20.8386 204.627 19.7149 204.252 18.8505 203.885 17.9992 203.36 17.2949 202.651 16.6976L202.573 16.6311 203.097 15.9736 203.179 16.0427C203.947 16.6804 204.531 17.4378 204.964 18.3578 205.408 19.3147 205.633 20.5762 205.633 22.1948L205.633 22.8164 207.662 22.8164C207.609 21.1884 207.501 20.0325 207.36 19.559 207.221 19.1255 207.013 19.1255 206.945 19.1255 206.72 19.1255 206.413 19.1535 205.811 19.3615L205.67 19.4109 205.67 18.5226 205.746 18.4997C206.324 18.3266 206.716 18.2523 207.057 18.2523 207.491 18.2523 207.817 18.5247 208.028 19.0652 208.245 19.6443 208.398 21.1262 208.485 23.4692L208.487 23.5773 205.633 23.5773 205.633 25.4979 208.909 25.4979C208.994 24.0399 209.147 22.7036 209.367 21.5268 209.491 20.859 209.649 20.1676 209.819 19.5725 209.134 18.5959 208.224 17.7002 207.044 16.8868L206.95 16.8224 207.449 16.207 207.529 16.2589C208.564 16.931 209.413 17.7034 210.121 18.576 210.281 18.1187 210.475 17.6795 210.699 17.2699 211.139 16.469 211.59 16.0464 212.083 15.9809 212.385 15.9398 212.68 16.0843 212.846 16.3515 213.051 16.682 213.199 17.3234 213.311 18.3709L213.316 18.4285 212.556 19.0403 212.54 18.8422" fill="#231F20" fill-rule="nonzero" fill-opacity="1" transform="matrix(1 0 0 -1 351.18 201)"/><path d="M211.576 26.4896 211.626 26.3716 212.357 26.8732 212.314 26.9564C211.98 27.6113 211.629 28.1295 211.137 28.6908L211.074 28.7615 210.411 28.3088 210.485 28.2189C211.001 27.5827 211.316 27.0811 211.576 26.4896" fill="#231F20" fill-rule="nonzero" fill-opacity="1" transform="matrix(1 0 0 -1 351.18 201)"/><path d="M147.05 97.7222 27.6711 66.6851C27.4974 66.642 27.1653 66.5234 26.9616 66.3873 26.7537 66.2501 26.5728 66.0718 26.3898 65.8291L0.47715 31.6073C0.380473 31.4778 0.385671 31.3578 0.384111 31.2497 0.380473 31.0511 0.5442 30.8593 0.701171 30.8245L26.6491 25.1767 28.1716 24.648 33.0123 23.6039 36.3336 23.1407 68.9076 16.114 71.8387 15.2277 75.5903 14.4189 78.1528 14.092 129.067 3.09524 147.05 97.7222" fill="#FFFFFF" fill-rule="nonzero" fill-opacity="1" transform="matrix(1 0 0 -1 351.18 201)"/><g clip-path="url(#clip3)"><path d="M150.735 85.6869C150.804 85.4385 150.874 85.0974 150.873 84.7695 150.872 84.4758 150.808 84.1936 150.751 83.9716L130.16 3.5703C130.038 3.09731 129.774 2.72932 129.577 2.7709L129.239 2.84575 147.318 98.0065 150.735 85.6869" fill="url(#fill4)" fill-rule="nonzero" transform="matrix(1 0 0 -1 351.18 201)"/></g><g clip-path="url(#clip5)"><path d="M119.213 37.0852C118.964 34.2175 118.628 32.1864 118.199 30.8588 117.756 29.5148 116.969 28.2033 115.868 26.9642 113.816 24.6756 110.836 23.5113 107.019 23.5113 103.116 23.5113 100.288 24.5411 98.6146 26.5597 96.9571 28.5755 96.5252 31.7097 96.8947 35.9682L97.8839 47.4244 94.7158 47.4244 95.008 50.7874 103.267 50.7874 102.992 47.4244 102.085 37.1819C101.861 34.6241 101.855 32.7399 102.003 31.5849 102.131 30.4975 102.499 29.5854 103.07 28.8874 104.173 27.5385 105.697 26.8811 107.721 26.8811 109.67 26.8811 111.277 27.4886 112.643 28.7584 113.914 29.9295 114.685 32.4623 115.022 36.2873L116.016 47.7306C116.016 47.7306 116.276 50.7874 119.61 50.7874L120.403 50.7874ZM58.8132 51.3206 64.0061 52.577 63.5551 47.4224 67.4643 47.4224 67.1758 44.1083 63.2707 44.1083 62.1261 30.93C62.0025 29.5157 62.1547 28.4569 62.5743 27.7719 62.9661 27.1456 63.5867 26.841 64.4818 26.841 67.4196 26.841 67.3114 24.029 67.3114 24.029 67.3114 24.029 65.0603 23.5217 63.5644 23.5217 61.1339 23.5217 59.3594 24.1809 58.3054 25.49 57.2565 26.7786 56.8532 28.7849 57.0896 31.4602ZM54.7943 51.6549C54.68 50.2541 53.4381 49.1184 52.0363 49.1184 50.6345 49.1184 49.5951 50.2541 49.7203 51.6549 49.8471 53.0536 51.0759 54.1893 52.4797 54.1893 53.88 54.1893 54.9227 53.0536 54.7943 51.6549ZM46.5627 47.4224 54.3281 47.4224 52.2531 23.5279C52.2531 23.5279 47.1474 23.2738 47.5959 28.4626L48.9473 44.0095 46.2659 44.0095ZM129.239 2.84575 147.318 98.0065 27.6181 66.8879C27.4194 66.8353 27.0707 66.7106 26.8462 66.5604 26.593 66.3925 26.3945 66.1809 26.2229 65.9538L0.150214 31.5163C-0.143976 31.1276 0.0072768 30.7232 0.482348 30.6213L28.1716 24.648C25.75 25.5525 23.936 26.8664 23.0014 27.9669 20.5299 30.8931 19.452 34.9213 20.047 39.2152 21.5565 50.1221 29.3864 55.0073 36.6314 55.0073 40.0905 55.0073 43.365 54.4366 45.9441 53.0223L45.5226 48.1709 41.9549 48.1709 42.1175 50.0456C40.8109 50.8575 36.1568 51.5951 32.3178 50.028 27.8109 47.9593 25.8701 42.6051 25.6174 39.0088 25.4412 36.4449 25.8009 33.0908 27.5988 30.6639 29.405 28.223 34.4618 26.3571 40.4158 28.353 43.062 29.2808 44.2424 26.5442 44.2424 26.5442L43.9686 26.3909C40.0338 24.0544 36.2686 23.3829 33.0123 23.6039L71.8387 15.2277 77.2525 25.1263 71.2097 44.0095 68.6966 44.0095 68.9929 47.4224 75.4349 47.4224 80.6104 31.2523 87.7774 44.3454C87.7774 44.3454 89.002 47.4224 92.9252 47.4224L94.2361 47.4224 76.1678 15.2969C75.9833 14.9678 75.8014 14.6706 75.5903 14.4189L129.239 2.84575" fill="url(#fill6)" fill-rule="nonzero" transform="matrix(1 0 0 -1 351.18 201)"/></g><path d="M171.675 78.8591C174.47 78.8591 179.315 80.4559 179.315 86.8444 179.315 93.7387 173.592 93.9512 171.808 93.9512L168.135 93.9512 168.135 78.8591ZM166.432 95.575 172.553 95.575C179.288 95.575 181.125 90.6772 181.125 86.6849 181.125 81.2812 177.319 77.2619 172.208 77.2619L166.432 77.2619 166.432 95.575" fill="#BE1567" fill-rule="nonzero" fill-opacity="1" transform="matrix(1 0 0 -1 351.18 201)"/><path d="M191.261 84.795C191.261 86.5248 190.356 88.1486 188.44 88.1486 186.204 88.1486 185.086 86.1791 184.846 84.795ZM183.035 83.2512C183.035 86.7113 184.873 89.6657 188.466 89.6657 191.714 89.6657 192.939 87.2701 192.939 84.3157L192.939 83.3578 184.687 83.3578C184.687 80.8556 185.965 78.6191 188.758 78.6191 190.037 78.6191 191.181 79.1252 191.793 79.551 191.793 79.5775 192.567 78.1668 192.567 78.1668 191.901 77.7676 190.543 77.1023 188.653 77.1023 185.006 77.1023 183.035 79.8971 183.035 83.2512" fill="#BE1567" fill-rule="nonzero" fill-opacity="1" transform="matrix(1 0 0 -1 351.18 201)"/><path d="M204.356 83.3843C204.356 86.2587 203.024 88.1486 200.815 88.1486 198.819 88.1486 197.461 86.7378 197.008 86.3116L197.008 80.3228C197.594 79.7906 198.951 78.5925 200.602 78.5925 202.678 78.5925 204.356 80.4294 204.356 83.3843ZM195.411 89.5067 197.008 89.5067 197.008 88.042C197.435 88.3086 198.951 89.6657 200.895 89.6657 204.595 89.6657 205.952 86.3116 205.952 83.4108 205.952 80.5624 204.303 77.1023 200.655 77.1023 198.926 77.1023 197.542 78.2204 197.008 78.6191L197.008 70.8999 195.411 70.8999 195.411 89.5067" fill="#BE1567" fill-rule="nonzero" fill-opacity="1" transform="matrix(1 0 0 -1 351.18 201)"/><path d="M213.403 83.1176 213.428 83.1176ZM213.403 83.1176C211.326 82.5594 209.381 81.7605 209.381 80.2699 209.381 78.9122 210.206 78.4599 211.166 78.4599 212.124 78.4599 213.481 79.2853 214.439 79.9772L214.439 83.4108 213.428 83.1176 213.455 83.1446C213.428 83.1446 213.428 83.1446 213.403 83.1176ZM214.627 78.5925C213.934 78.0874 212.55 77.1023 210.925 77.1023 208.823 77.1023 207.758 78.4866 207.758 80.1368 207.758 82.7455 210.022 83.571 213.268 84.4493L214.439 84.768 214.439 85.9395C214.439 87.5632 213.588 88.202 212.177 88.202 210.82 88.202 209.381 86.951 209.222 86.8179L208.292 87.962C208.769 88.3351 210.047 89.6657 212.177 89.6657 214.281 89.6657 216.036 88.6813 216.036 86.2322L216.036 79.4445 217.501 78.1403 216.408 76.9422 214.627 78.5925" fill="#BE1567" fill-rule="nonzero" fill-opacity="1" transform="matrix(1 0 0 -1 351.18 201)"/><path d="M219.788 89.5067 221.385 89.5067 221.385 87.7764C221.678 88.1221 223.116 89.6657 224.525 89.6657 225.644 89.6657 226.07 89.4266 226.496 89.2401L225.831 87.6698C225.35 87.9094 224.951 88.042 224.286 88.042 223.223 88.042 221.917 86.8714 221.385 85.9931L221.385 77.2619 219.788 77.2619 219.788 89.5067" fill="#BE1567" fill-rule="nonzero" fill-opacity="1" transform="matrix(1 0 0 -1 351.18 201)"/><path d="M230.433 80.2963 230.433 88.0155 228.303 88.0155 228.303 89.5067 230.405 89.5067 230.405 91.7952 232.002 91.7952 232.002 89.5067 235.223 89.5067 235.223 88.0155 232.03 88.0155 232.03 80.5624C232.03 78.7527 232.774 78.5925 233.307 78.5925 234.345 78.5925 235.037 79.0723 235.037 79.0723L235.649 77.7406C235.649 77.7406 234.744 77.1023 233.227 77.1023 231.283 77.1023 230.433 78.1403 230.433 80.2963" fill="#BE1567" fill-rule="nonzero" fill-opacity="1" transform="matrix(1 0 0 -1 351.18 201)"/><path d="M237.911 89.5067 239.508 89.5067 239.508 87.8293C240.998 89.1599 242.648 89.6657 243.606 89.6657 245.337 89.6657 246.269 88.8139 246.615 87.7764 247.12 88.2285 248.69 89.6392 250.793 89.6392 253.083 89.6392 253.988 88.1486 253.988 86.7648L253.988 77.2619 252.39 77.2619 252.39 86.4182C252.39 87.8029 251.326 88.1221 250.661 88.1221 249.01 88.1221 247.227 86.5248 246.801 86.0196L246.801 77.2619 245.178 77.2619 245.178 86.4182C245.178 87.8029 244.113 88.1221 243.473 88.1221 241.637 88.1221 239.668 86.2587 239.508 85.9931L239.508 77.2619 237.911 77.2619 237.911 89.5067" fill="#BE1567" fill-rule="nonzero" fill-opacity="1" transform="matrix(1 0 0 -1 351.18 201)"/><path d="M264.657 84.795C264.657 86.5248 263.753 88.1486 261.836 88.1486 259.599 88.1486 258.482 86.1791 258.242 84.795ZM256.432 83.2512C256.432 86.7113 258.268 89.6657 261.862 89.6657 265.109 89.6657 266.334 87.2701 266.334 84.3157L266.334 83.3578 258.082 83.3578C258.082 80.8556 259.361 78.6191 262.154 78.6191 263.432 78.6191 264.578 79.1252 265.19 79.551 265.19 79.5775 265.962 78.1668 265.962 78.1668 265.297 77.7676 263.938 77.1023 262.049 77.1023 258.401 77.1023 256.432 79.8971 256.432 83.2512" fill="#BE1567" fill-rule="nonzero" fill-opacity="1" transform="matrix(1 0 0 -1 351.18 201)"/><path d="M268.94 89.5067 270.537 89.5067 270.537 87.8029C271.495 88.6813 273.066 89.6657 274.556 89.6657 277.138 89.6657 278.176 88.1486 278.176 86.4983L278.176 77.2619 276.579 77.2619 276.579 85.913C276.579 87.5367 275.619 88.1486 274.475 88.1486 272.639 88.1486 270.696 86.2852 270.537 86.0196L270.537 77.2619 268.94 77.2619 268.94 89.5067" fill="#BE1567" fill-rule="nonzero" fill-opacity="1" transform="matrix(1 0 0 -1 351.18 201)"/><path d="M282.565 80.2963 282.565 88.0155 280.436 88.0155 280.436 89.5067 282.539 89.5067 282.539 91.7952 284.135 91.7952 284.135 89.5067 287.357 89.5067 287.357 88.0155 284.162 88.0155 284.162 80.5624C284.162 78.7527 284.907 78.5925 285.439 78.5925 286.479 78.5925 287.171 79.0723 287.171 79.0723L287.783 77.7406C287.783 77.7406 286.876 77.1023 285.361 77.1023 283.417 77.1023 282.565 78.1403 282.565 80.2963" fill="#BE1567" fill-rule="nonzero" fill-opacity="1" transform="matrix(1 0 0 -1 351.18 201)"/><path d="M303.67 83.3843C303.67 86.8179 301.354 88.1486 299.625 88.1486 297.972 88.1486 295.444 86.9245 295.444 83.3578 295.444 79.9236 297.841 78.5925 299.571 78.5925 301.222 78.5925 303.67 79.8172 303.67 83.3843ZM293.768 83.3578C293.768 86.0196 295.551 89.6657 299.597 89.6657 303.67 89.6657 305.347 86.046 305.347 83.3843 305.347 80.7225 303.67 77.1023 299.625 77.1023 295.444 77.1023 293.768 80.5889 293.768 83.3578" fill="#BE1567" fill-rule="nonzero" fill-opacity="1" transform="matrix(1 0 0 -1 351.18 201)"/><path d="M309.229 88.0155 307.1 88.0155 307.1 89.5067 309.229 89.5067 309.229 93.339C309.229 95.2559 310.428 96.6395 312.371 96.6395 313.888 96.6395 314.818 96.0807 314.818 96.0807L314.181 94.6972C314.181 94.6972 313.487 95.1493 312.45 95.1493 311.919 95.1493 310.8 94.8032 310.8 93.1793L310.8 89.5067 313.755 89.5067 313.755 88.042 310.826 88.042 310.826 77.2619 309.229 77.2619 309.229 88.0155" fill="#BE1567" fill-rule="nonzero" fill-opacity="1" transform="matrix(1 0 0 -1 351.18 201)"/><path d="M166.432 67.7657 176.014 67.7657 176.014 66.1414 168.135 66.1414 168.135 59.6734 175.428 59.6734 175.428 58.0767 168.135 58.0767 168.135 51.0493 176.014 51.0493 176.014 49.452 166.432 49.452 166.432 67.7657" fill="#BE1567" fill-rule="nonzero" fill-opacity="1" transform="matrix(1 0 0 -1 351.18 201)"/><path d="M179.391 68.6436 180.988 68.6436 180.988 49.452 179.391 49.452 179.391 68.6436" fill="#BE1567" fill-rule="nonzero" fill-opacity="1" transform="matrix(1 0 0 -1 351.18 201)"/><path d="M192.459 56.9852C192.459 58.7155 191.555 60.3387 189.638 60.3387 187.402 60.3387 186.285 58.3698 186.044 56.9852ZM184.234 55.4414C184.234 58.9015 186.072 61.8559 189.664 61.8559 192.911 61.8559 194.137 59.4602 194.137 56.5064L194.137 55.548 185.884 55.548C185.884 53.0457 187.163 50.8098 189.957 50.8098 191.236 50.8098 192.38 51.3154 192.992 51.7412 192.992 51.7677 193.764 50.3575 193.764 50.3575 193.099 49.9578 191.74 49.2925 189.851 49.2925 186.204 49.2925 184.234 52.0873 184.234 55.4414" fill="#BE1567" fill-rule="nonzero" fill-opacity="1" transform="matrix(1 0 0 -1 351.18 201)"/><path d="M196.077 55.5744C196.077 59.5938 198.926 61.8559 201.826 61.8559 203.343 61.8559 204.567 61.3506 205.392 60.7919 205.392 60.7919 204.621 59.4602 204.621 59.4338 203.955 59.9136 202.891 60.3387 201.906 60.3387 199.51 60.3387 197.727 58.4488 197.727 55.4679 197.727 52.354 199.697 50.7826 201.826 50.7826 203.13 50.7826 204.221 51.369 204.833 51.7947L205.633 50.4371C204.968 50.0379 203.636 49.2925 201.746 49.2925 198.207 49.2925 196.077 52.2209 196.077 55.5744" fill="#BE1567" fill-rule="nonzero" fill-opacity="1" transform="matrix(1 0 0 -1 351.18 201)"/><path d="M208.691 52.4865 208.691 60.2056 206.561 60.2056 206.561 61.6969 208.663 61.6969 208.663 63.9859 210.26 63.9859 210.26 61.6969 213.481 61.6969 213.481 60.2056 210.288 60.2056 210.288 52.7526C210.288 50.9428 211.031 50.7826 211.565 50.7826 212.603 50.7826 213.296 51.2625 213.296 51.2625L213.908 49.9313C213.908 49.9313 213.002 49.2925 211.485 49.2925 209.541 49.2925 208.691 50.331 208.691 52.4865" fill="#BE1567" fill-rule="nonzero" fill-opacity="1" transform="matrix(1 0 0 -1 351.18 201)"/><path d="M216.327 61.6969 217.924 61.6969 217.924 59.9665C218.218 60.3122 219.655 61.8559 221.064 61.8559 222.183 61.8559 222.61 61.6168 223.035 61.4302L222.37 59.86C221.891 60.0991 221.491 60.2321 220.826 60.2321 219.762 60.2321 218.458 59.0616 217.924 58.1832L217.924 49.452 216.327 49.452 216.327 61.6969" fill="#BE1567" fill-rule="nonzero" fill-opacity="1" transform="matrix(1 0 0 -1 351.18 201)"/><path d="M225.509 61.6969 227.132 61.6969 227.132 49.452 225.509 49.452ZM225.136 65.6628C225.136 66.3281 225.667 66.8607 226.334 66.8607 226.999 66.8607 227.531 66.3281 227.531 65.6628 227.531 64.9975 226.999 64.4381 226.334 64.4381 225.667 64.4381 225.136 64.9975 225.136 65.6628" fill="#BE1567" fill-rule="nonzero" fill-opacity="1" transform="matrix(1 0 0 -1 351.18 201)"/><path d="M230.858 55.5744C230.858 59.5938 233.705 61.8559 236.606 61.8559 238.124 61.8559 239.348 61.3506 240.173 60.7919 240.173 60.7919 239.401 59.4602 239.401 59.4338 238.736 59.9136 237.672 60.3387 236.687 60.3387 234.291 60.3387 232.508 58.4488 232.508 55.4679 232.508 52.354 234.478 50.7826 236.606 50.7826 237.911 50.7826 239.002 51.369 239.614 51.7947L240.414 50.4371C239.749 50.0379 238.417 49.2925 236.527 49.2925 232.987 49.2925 230.858 52.2209 230.858 55.5744" fill="#BE1567" fill-rule="nonzero" fill-opacity="1" transform="matrix(1 0 0 -1 351.18 201)"/><path d="M247.465 55.3083 247.492 55.3083ZM247.465 55.3083C245.389 54.7496 243.445 53.9512 243.445 52.46 243.445 51.1024 244.27 50.6501 245.23 50.6501 246.186 50.6501 247.545 51.4755 248.503 52.1674L248.503 55.6009 247.492 55.3083 247.517 55.3348C247.492 55.3348 247.492 55.3348 247.465 55.3083ZM248.689 50.7826C247.997 50.2775 246.613 49.2925 244.989 49.2925 242.886 49.2925 241.822 50.6771 241.822 52.3275 241.822 54.9356 244.084 55.7611 247.332 56.6395L248.503 56.9587 248.503 58.1296C248.503 59.7534 247.651 60.3922 246.24 60.3922 244.884 60.3922 243.445 59.1417 243.286 59.0081L242.354 60.1526C242.833 60.5253 244.111 61.8559 246.24 61.8559 248.343 61.8559 250.1 60.8715 250.1 58.4224L250.1 51.6346 251.563 50.331 250.472 49.1324 248.689 50.7826" fill="#BE1567" fill-rule="nonzero" fill-opacity="1" transform="matrix(1 0 0 -1 351.18 201)"/><path d="M254.489 68.6436 256.086 68.6436 256.086 49.452 254.489 49.452 254.489 68.6436" fill="#BE1567" fill-rule="nonzero" fill-opacity="1" transform="matrix(1 0 0 -1 351.18 201)"/><path d="M265.4 67.7657 274.982 67.7657 274.982 66.1414 267.104 66.1414 267.104 59.6734 274.397 59.6734 274.397 58.0767 267.104 58.0767 267.104 51.0493 274.982 51.0493 274.982 49.452 265.4 49.452 265.4 67.7657" fill="#BE1567" fill-rule="nonzero" fill-opacity="1" transform="matrix(1 0 0 -1 351.18 201)"/><path d="M278.359 61.6969 279.956 61.6969 279.956 59.993C280.914 60.8715 282.485 61.8559 283.976 61.8559 286.557 61.8559 287.595 60.3387 287.595 58.6885L287.595 49.452 285.998 49.452 285.998 58.1031C285.998 59.7269 285.04 60.3387 283.896 60.3387 282.058 60.3387 280.116 58.4753 279.956 58.2097L279.956 49.452 278.359 49.452 278.359 61.6969" fill="#BE1567" fill-rule="nonzero" fill-opacity="1" transform="matrix(1 0 0 -1 351.18 201)"/><path d="M297.814 57.6769C297.814 59.1946 296.617 60.4453 295.126 60.4453 293.636 60.4453 292.412 59.1946 292.412 57.6769 292.412 56.1598 293.636 54.9356 295.126 54.9356 296.617 54.9356 297.814 56.1598 297.814 57.6769ZM298.746 47.4822C298.746 49.1859 297.096 50.5707 295.18 50.5707 293.29 50.5707 291.612 49.1859 291.612 47.4822 291.612 45.8053 293.262 44.4218 295.153 44.4218 297.07 44.4218 298.746 45.8053 298.746 47.4822ZM289.989 47.4557C289.989 50.6771 293.475 51.7947 294.408 51.7947L294.408 53.578C292.437 53.9242 290.84 55.6281 290.84 57.6769 290.84 59.993 292.838 61.8559 295.126 61.8559 295.951 61.8559 296.75 61.5903 297.415 61.1641L301.355 61.8294 301.355 60.2321 298.507 60.2321C299.066 59.5139 299.411 58.6354 299.411 57.6769 299.411 55.548 297.814 53.8977 295.792 53.578L295.792 51.7947C296.883 51.7947 300.397 50.7037 300.397 47.4557 300.397 45.14 298.133 43.0911 295.153 43.0911 292.091 43.0911 289.989 45.2731 289.989 47.4557" fill="#BE1567" fill-rule="nonzero" fill-opacity="1" transform="matrix(1 0 0 -1 351.18 201)"/><path d="M304.12 61.6969 305.743 61.6969 305.743 49.452 304.12 49.452ZM303.747 65.6628C303.747 66.3281 304.28 66.8607 304.946 66.8607 305.612 66.8607 306.142 66.3281 306.142 65.6628 306.142 64.9975 305.612 64.4381 304.946 64.4381 304.28 64.4381 303.747 64.9975 303.747 65.6628" fill="#BE1567" fill-rule="nonzero" fill-opacity="1" transform="matrix(1 0 0 -1 351.18 201)"/><path d="M310.4 61.6969 311.997 61.6969 311.997 59.993C312.955 60.8715 314.527 61.8559 316.017 61.8559 318.598 61.8559 319.638 60.3387 319.638 58.6885L319.638 49.452 318.039 49.452 318.039 58.1031C318.039 59.7269 317.081 60.3387 315.937 60.3387 314.1 60.3387 312.157 58.4753 311.997 58.2097L311.997 49.452 310.4 49.452 310.4 61.6969" fill="#BE1567" fill-rule="nonzero" fill-opacity="1" transform="matrix(1 0 0 -1 351.18 201)"/><path d="M330.84 56.9852C330.84 58.7155 329.935 60.3387 328.018 60.3387 325.782 60.3387 324.665 58.3698 324.424 56.9852ZM322.614 55.4414C322.614 58.9015 324.452 61.8559 328.044 61.8559 331.291 61.8559 332.517 59.4602 332.517 56.5064L332.517 55.548 324.264 55.548C324.264 53.0457 325.543 50.8098 328.337 50.8098 329.616 50.8098 330.76 51.3154 331.372 51.7412 331.372 51.7677 332.144 50.3575 332.144 50.3575 331.479 49.9578 330.12 49.2925 328.232 49.2925 324.583 49.2925 322.614 52.0873 322.614 55.4414" fill="#BE1567" fill-rule="nonzero" fill-opacity="1" transform="matrix(1 0 0 -1 351.18 201)"/><path d="M342.601 56.9852C342.601 58.7155 341.698 60.3387 339.78 60.3387 337.545 60.3387 336.427 58.3698 336.186 56.9852ZM334.377 55.4414C334.377 58.9015 336.214 61.8559 339.807 61.8559 343.054 61.8559 344.279 59.4602 344.279 56.5064L344.279 55.548 336.027 55.548C336.027 53.0457 337.305 50.8098 340.1 50.8098 341.377 50.8098 342.523 51.3154 343.135 51.7412 343.135 51.7677 343.907 50.3575 343.907 50.3575 343.241 49.9578 341.883 49.2925 339.993 49.2925 336.346 49.2925 334.377 52.0873 334.377 55.4414" fill="#BE1567" fill-rule="nonzero" fill-opacity="1" transform="matrix(1 0 0 -1 351.18 201)"/><path d="M347.177 61.6969 348.774 61.6969 348.774 59.9665C349.068 60.3122 350.505 61.8559 351.914 61.8559 353.033 61.8559 353.46 61.6168 353.885 61.4302L353.22 59.86C352.739 60.0991 352.341 60.2321 351.676 60.2321 350.612 60.2321 349.306 59.0616 348.774 58.1832L348.774 49.452 347.177 49.452 347.177 61.6969" fill="#BE1567" fill-rule="nonzero" fill-opacity="1" transform="matrix(1 0 0 -1 351.18 201)"/><path d="M356.358 61.6969 357.982 61.6969 357.982 49.452 356.358 49.452ZM355.986 65.6628C355.986 66.3281 356.517 66.8607 357.183 66.8607 357.849 66.8607 358.381 66.3281 358.381 65.6628 358.381 64.9975 357.849 64.4381 357.183 64.4381 356.517 64.4381 355.986 64.9975 355.986 65.6628" fill="#BE1567" fill-rule="nonzero" fill-opacity="1" transform="matrix(1 0 0 -1 351.18 201)"/><path d="M362.639 61.6969 364.236 61.6969 364.236 59.993C365.194 60.8715 366.765 61.8559 368.256 61.8559 370.837 61.8559 371.875 60.3387 371.875 58.6885L371.875 49.452 370.278 49.452 370.278 58.1031C370.278 59.7269 369.319 60.3387 368.174 60.3387 366.338 60.3387 364.395 58.4753 364.236 58.2097L364.236 49.452 362.639 49.452 362.639 61.6969" fill="#BE1567" fill-rule="nonzero" fill-opacity="1" transform="matrix(1 0 0 -1 351.18 201)"/><path d="M382.093 57.6769C382.093 59.1946 380.895 60.4453 379.405 60.4453 377.913 60.4453 376.69 59.1946 376.69 57.6769 376.69 56.1598 377.913 54.9356 379.405 54.9356 380.895 54.9356 382.093 56.1598 382.093 57.6769ZM383.024 47.4822C383.024 49.1859 381.374 50.5707 379.458 50.5707 377.568 50.5707 375.891 49.1859 375.891 47.4822 375.891 45.8053 377.541 44.4218 379.431 44.4218 381.347 44.4218 383.024 45.8053 383.024 47.4822ZM374.267 47.4557C374.267 50.6771 377.753 51.7947 378.686 51.7947L378.686 53.578C376.716 53.9242 375.119 55.6281 375.119 57.6769 375.119 59.993 377.116 61.8559 379.405 61.8559 380.23 61.8559 381.028 61.5903 381.693 61.1641L385.633 61.8294 385.633 60.2321 382.786 60.2321C383.343 59.5139 383.689 58.6354 383.689 57.6769 383.689 55.548 382.093 53.8977 380.07 53.578L380.07 51.7947C381.161 51.7947 384.674 50.7037 384.674 47.4557 384.674 45.14 382.412 43.0911 379.431 43.0911 376.37 43.0911 374.267 45.2731 374.267 47.4557" fill="#BE1567" fill-rule="nonzero" fill-opacity="1" transform="matrix(1 0 0 -1 351.18 201)"/></g></g></g></g></g></svg>